<svg xmlns="http://www.w3.org/2000/svg" viewBox="0 0 156.55 42.61"><defs><style>.cls-1{fill:#e6e7e8;}.cls-2{fill:#bcbec0;}.cls-3{fill:#207c74;}</style></defs><title>Asset 2</title><g id="Layer_2" data-name="Layer 2"><g id="Layer_1-2" data-name="Layer 1"><path class="cls-1" d="M49.12.61h7.21L66.56,17.33h.06V.61h5.31V24.67H65L54.49,7.54h-.07V24.67h-5.3Z"/><path class="cls-1" d="M17,6.86a5.69,5.69,0,0,0-4.55-2c-4,0-7,3.27-7,7.75s3,7.75,6.8,7.75a5.74,5.74,0,0,0,5-2.58l4.42,3.29A10.48,10.48,0,0,1,13,25.28c-7.51,0-13-4.93-13-12.64S5.47,0,13,0c2.69,0,6.08.92,8.12,3.53Z"/><path class="cls-1" d="M34.22,0c7.51,0,13,4.93,13,12.64s-5.47,12.64-13,12.64-13-4.93-13-12.64S26.71,0,34.22,0Zm0,20.39c4.52,0,7.48-3.26,7.48-7.75s-3-7.75-7.48-7.75-7.47,3.27-7.47,7.75S29.7,20.39,34.22,20.39Z"/><path class="cls-2" d="M132.18,6.86a5.69,5.69,0,0,0-4.55-2c-4,0-7,3.27-7,7.75s3,7.75,6.8,7.75a5.76,5.76,0,0,0,5-2.58l4.42,3.29a10.5,10.5,0,0,1-8.7,4.18c-7.51,0-13-4.93-13-12.64S120.63,0,128.14,0c2.68,0,6.08.92,8.12,3.53Z"/><path class="cls-2" d="M144.38,5.3h-6.86V.61h19V5.3h-6.86V24.67h-5.31Z"/><path class="cls-2" d="M97.09.61h16.35V5.5h-11V10h10.43v4.89H102.39v4.9h11.66v4.89h-17Z"/><path class="cls-1" d="M49.12.61h7.21L66.56,17.33h.06V.61h5.31V24.67H65L54.49,7.54h-.07V24.67h-5.3Z"/><polygon class="cls-2" points="94.68 0.61 94.68 24.67 87.75 24.67 77.25 7.54 77.18 7.54 77.18 24.67 71.12 24.67 68.11 19.75 71.88 19.75 71.88 0.61 79.08 0.61 89.31 17.33 89.38 17.33 89.38 0.61 94.68 0.61"/><path class="cls-3" d="M83.19,32.76h6.2v1.55H84.9v2.52h4.23v1.55H84.9v4H83.19Z"/><path class="cls-3" d="M94,32.76h1.48l4.14,9.6H97.68l-.9-2.19H92.62l-.87,2.19H89.84Zm2.17,5.94-1.47-3.91L93.2,38.7Z"/><path class="cls-3" d="M108,35a2.65,2.65,0,0,0-2-.95,3.25,3.25,0,0,0-3.29,3.43A3.29,3.29,0,0,0,106,41.06a2.7,2.7,0,0,0,2.16-1.16l1.41,1a4.26,4.26,0,0,1-3.58,1.71,4.81,4.81,0,0,1-5.07-5,4.82,4.82,0,0,1,5.07-5.08A4.19,4.19,0,0,1,109.31,34Z"/><path class="cls-3" d="M111.32,32.76H113v9.6h-1.71Z"/><path class="cls-3" d="M115.81,32.76h1.71v8.06h4.08v1.54h-5.79Z"/><path class="cls-3" d="M123.49,32.76h1.71v9.6h-1.71Z"/><path class="cls-3" d="M130,34.31H127V32.76h7.6v1.55h-2.94v8H130Z"/><path class="cls-3" d="M136.41,32.76h1.71v9.6h-1.71Z"/><path class="cls-3" d="M140.9,32.76h6.36v1.55h-4.65v2.36H147v1.54h-4.41v2.61h4.89v1.54h-6.6Z"/><path class="cls-3" d="M154.57,34.82a2,2,0,0,0-1.68-.76c-.78,0-1.57.36-1.57,1.24,0,1.92,4.56.82,4.56,4.24,0,2.06-1.63,3.07-3.52,3.07a4,4,0,0,1-3.14-1.3l1.29-1.25a2.24,2.24,0,0,0,1.89,1c.79,0,1.69-.43,1.69-1.31,0-2.11-4.56-.9-4.56-4.33,0-2,1.76-2.9,3.54-2.9a3.91,3.91,0,0,1,2.75,1Z"/></g></g></svg>